<?xml version="1.0" encoding="utf-8"?>
<!-- Generator: Adobe Illustrator 21.1.0, SVG Export Plug-In . SVG Version: 6.00 Build 0)  -->
<svg version="1.1" id="Layer_1" xmlns="http://www.w3.org/2000/svg" xmlns:xlink="http://www.w3.org/1999/xlink" x="0px" y="0px"
	 viewBox="0 0 297.8 57.6" style="enable-background:new 0 0 297.8 57.6;" xml:space="preserve">
<style type="text/css">
	.st0{fill:#FFFFFF;}
	.st1{fill:#D1D1D1;}
	.st2{fill:#7A7A7A;}
	.st3{fill:#383838;}
	.st4{opacity:0.23;}
</style>
<g>
	<path d="M50.531,23.699c-1.02-10.979-3.3-11.64-13.02-11.64c-1.32,0-3.36,0-3.9,0.06c-1.56,0.18-1.68,0.48-1.68,2.22v30.419
		c0,1.92,0,2.52,6.419,2.52h3v2.64c-3-0.24-9.3-0.24-12.6-0.24s-9.6,0-12.6,0.24v-2.64h3c6.42,0,6.42-0.6,6.42-2.52V14.339
		c0-1.86-0.12-2.1-1.8-2.22c-0.42-0.06-2.58-0.06-3.84-0.06c-9.719,0-11.999,0.72-13.019,11.64h-2.52l1.38-14.28h45.898l1.38,14.28
		H50.531z"/>
	<path d="M76.932,30.599c-1.32,0-3-0.9-3-3.06c0-1.32,0.84-2.16,0.84-2.16c-5.7,0.12-8.879,5.52-8.879,11.1v8.34
		c0,1.86,0,2.46,4.62,2.46h1.62v2.64l-8.58-0.24c-2.52,0-5.22,0.06-7.74,0.24v-2.64h1.08c3.9,0,3.9-0.54,3.9-2.4V30.059
		c0-2.939-0.54-3.36-4.98-3.36v-2.64l9.6-0.66v6.6h0.06c2.34-5.04,6.18-6.6,9.18-6.6c3.18,0,5.34,1.86,5.34,4.14
		C79.992,29.579,78.432,30.599,76.932,30.599z"/>
	<path d="M114.612,50.278c-3.06,0-4.44-2.52-4.68-4.62c-1.86,3.06-5.46,4.92-10.08,4.92c-4.8,0-11.759-1.32-11.759-6.96
		c0-3.9,3.48-6.42,7.44-7.8c4.62-1.62,7.859-1.8,13.679-2.1v-1.56c0-4.32-3.18-7.14-8.28-7.14c-0.66,0-3.54,0-5.52,0.66
		c0.54,0.36,1.38,1.26,1.38,2.7c0,2.04-1.56,3.18-3.18,3.18c-1.5,0-3.18-1.02-3.18-3.24c0-5.1,6.96-5.28,10.62-5.28
		c7.439,0,13.5,3.3,13.5,9.06v12.3c0,0.6,0,3.24,2.4,3.24s2.4-2.64,2.4-3.24v-3.18h2.52v3.3
		C121.871,50.278,115.031,50.278,114.612,50.278z M109.212,35.519c-14.339,0.6-15.599,6.12-15.599,8.1c0,3.12,3.359,4.98,6.899,4.98
		c1.5,0,8.7-0.6,8.7-7.2V35.519z"/>
	<path d="M157.991,49.678c-2.58,0-5.1,0.06-7.68,0.24v-2.64h1.08c3.9,0,3.9-0.54,3.9-2.4V31.739c0-3.84-1.02-6.36-5.46-6.36
		c-3.72,0-9.959,2.28-9.959,9.06v10.439c0,1.86,0,2.4,3.9,2.4h1.08v2.64c-2.52-0.18-5.1-0.24-7.62-0.24c-2.58,0-5.1,0.06-7.68,0.24
		v-2.64h1.08c3.9,0,3.9-0.54,3.9-2.4V30.059c0-2.939-0.54-3.36-4.979-3.36v-2.64l9.839-0.66v5.88c1.38-2.34,4.74-5.88,11.16-5.88
		c5.58,0,10.08,1.8,10.08,8.4v13.079c0,1.86,0,2.4,3.9,2.4h1.08v2.64C163.091,49.738,160.511,49.678,157.991,49.678z"/>
	<path d="M186.313,50.578c-1.5,0-5.28-0.06-8.28-2.7l-1.56,1.5c-1.14,1.14-1.2,1.2-1.68,1.2c-0.96,0-0.96-0.66-0.96-1.68v-7.68
		c0-1.26,0-1.74,1.26-1.74c1.02,0,1.08,0.18,1.38,1.26c1.8,6.36,5.76,7.86,9.84,7.86c7.26,0,8.999-3.12,8.999-5.22
		c0-4.08-5.52-4.92-8.999-5.46c-5.521-0.84-12.479-1.92-12.479-7.56c0-2.76,2.039-7.32,11.939-7.32c3,0,5.22,0.6,6.6,1.38
		c0.359,0.24,0.54,0.24,0.54,0.24c0.239,0,1.319-0.96,1.56-1.2c0.48-0.36,0.72-0.42,1.021-0.42c0.96,0,0.96,0.66,0.96,1.68v5.82
		c0,1.26,0,1.68-1.261,1.68c-1.14,0-1.199-0.36-1.26-1.26c-0.359-4.14-3.239-6.12-8.22-6.12c-6.539,0-8.879,2.28-8.879,4.38
		c0,3.18,4.619,3.9,8.459,4.5c5.04,0.78,6.84,1.02,9.24,2.52c2.279,1.44,3.779,3.42,3.779,6.12
		C198.312,45.358,196.332,50.578,186.313,50.578z"/>
	<path d="M214.992,49.678c-2.46,0-4.98,0.06-7.44,0.24v-2.64h1.08c3.9,0,3.9-0.54,3.9-2.4V30.059c0-2.939-0.48-3.36-4.74-3.36v-2.64
		l9.84-0.66v21.479c0,2.4,0.479,2.4,4.5,2.4v2.64C219.911,49.738,217.272,49.678,214.992,49.678z M214.632,17.579
		c-2.04,0-3.66-1.62-3.66-3.66s1.68-3.66,3.66-3.66c2.04,0,3.66,1.62,3.66,3.66S216.612,17.579,214.632,17.579z"/>
	<path d="M245.531,50.578c-3.72,0-9.359-1.38-9.359-8.22v-15.66h-6.36v-1.98c6.12-0.18,9.12-6.06,9.18-11.699h2.521v11.04h10.619
		v2.64h-10.619v15.66c0,1.26,0,6.06,4.619,6.06c2.101,0,4.74-1.74,4.74-6.24v-3.12h2.52v3.3
		C253.391,47.278,250.031,50.578,245.531,50.578z"/>
	<path d="M279.611,50.578c-9.119,0-16.439-6.24-16.439-13.859c0-7.14,6.42-13.68,15.54-13.68c11.22,0,13.379,7.92,13.379,11.939
		c0,1.44-0.54,1.44-1.8,1.44h-21.119c0,1.62,0,5.4,2.34,8.28c0.9,1.02,3.6,3.72,8.46,3.72c3.359,0,7.8-1.44,9.479-5.58
		c0.36-0.84,0.48-1.08,1.38-1.08c0.3,0,1.26,0,1.26,1.02C292.09,43.918,289.151,50.578,279.611,50.578z M278.651,25.019
		c-2.819,0-8.64,1.62-9.359,9.54h18.18C287.41,32.819,286.99,25.019,278.651,25.019z"/>
</g>
<g>
	<path class="st0" d="M31.662,43.372l0.035,1.409h-0.383c0-0.252,0-0.748-0.208-0.748c0,0-0.026,0-0.13,0.052l-1.218,0.531v2.792
		l1.026,0.452c0.069,0.026,0.096,0.043,0.147,0.043c0.166,0,0.383-0.174,0.383-0.661h0.383c-0.026,0.4-0.035,1.018-0.035,1.131
		c0,0.322,0.009,0.687,0.035,1.009h-0.383c0-0.435-0.078-0.904-0.513-1.096l-5.123-2.244c-0.174-0.078-0.209-0.147-0.209-0.304
		c0-0.209,0.07-0.235,0.226-0.305l5.332-2.339c0.235-0.104,0.287-0.235,0.287-0.774v-0.227h0.383L31.662,43.372z M26.574,46.016
		l2.801,1.226v-2.461L26.574,46.016z"/>
	<path class="st1" d="M31.888,37.159c0,2.114-1.444,3.766-3.166,3.766c-1.705,0-3.157-1.652-3.157-3.757
		c0-0.861,0.322-1.531,0.774-2.061l-0.67-0.513c-0.07-0.052-0.104-0.079-0.104-0.166c0-0.139,0.096-0.139,0.244-0.139h2.035
		c0.183,0,0.244,0,0.244,0.191c0,0.07,0,0.174-0.104,0.191c-1.618,0.278-2.035,1.557-2.035,2.34c0,1.261,0.705,2.896,2.774,2.896
		c2.105,0,2.783-1.67,2.783-2.905c0-1.018-0.557-2.279-1.878-2.349c-0.148-0.008-0.148-0.087-0.148-0.183
		c0-0.147,0.043-0.183,0.183-0.183C30.819,34.289,31.888,35.481,31.888,37.159z"/>
	<path class="st2" d="M29.662,25.381c0,0.583,0.078,0.583,0.348,0.583h1.444c0.13,0,0.244,0,0.244,0.122
		c0,0.07-0.209,0.374-0.479,0.583c0.043,0.026,0.357,0.252,0.531,0.896c0.122,0.443,0.139,0.904,0.139,1.226
		c0,2.253-1.522,3.801-3.166,3.801c-1.705,0-3.157-1.652-3.157-3.749c0-1.018,0.435-1.652,0.774-2.062l-0.67-0.513
		c-0.07-0.052-0.104-0.078-0.104-0.165c0-0.139,0.096-0.139,0.244-0.139h2.035c0.183,0,0.244,0,0.244,0.191
		c0,0.069,0,0.174-0.104,0.191c-1.609,0.278-2.035,1.557-2.035,2.339c0,1.261,0.705,2.888,2.774,2.888c2,0,2.783-1.557,2.783-3.018
		c0-0.113,0-0.644-0.165-1.079c-0.218-0.591-0.574-0.591-0.774-0.591h-0.539c-0.27,0-0.365,0-0.365,0.922v0.435h-0.383
		c0.035-0.435,0.035-1.252,0.035-1.722l-0.035-1.313h0.383V25.381z"/>
	<path class="st3" d="M26.722,17.611h2.975c1.218,0,2.192,1.079,2.192,2.453c0,1.435-0.922,2.696-2.201,2.696h-3.192
		c-0.27,0-0.356,0-0.356,0.705v0.261h-0.383l0.035-1.427l-0.035-1.426h0.383v0.261c0,0.705,0.087,0.705,0.356,0.705h3.209
		c1.548,0,1.8-1.209,1.8-1.792c0-1.079-0.678-2.053-1.835-2.053h-2.949c-0.226,0-0.583,0-0.583,0.965h-0.383
		c0.026-0.391,0.035-0.948,0.035-1.157c0-0.122-0.008-0.73-0.035-1.157h0.383C26.139,17.611,26.496,17.611,26.722,17.611z"/>
</g>
<g class="st4">
	<path d="M43.872,45.318c0,3.574-0.869,6.299-2.607,8.174c-1.739,1.875-4.365,2.813-7.881,2.813c-0.84,0-1.709-0.054-2.607-0.161
		c-0.898-0.107-1.689-0.259-2.373-0.454v-4.424c1.894,0.469,3.613,0.703,5.156,0.703c1.718,0,3.007-0.552,3.867-1.655
		c0.859-1.104,1.289-2.593,1.289-4.468V13.209c0-3.555,0.869-6.27,2.607-8.145c1.738-1.875,4.375-2.813,7.91-2.813
		c0.839,0,1.704,0.054,2.593,0.161c0.889,0.107,1.685,0.249,2.388,0.425V7.32c-1.895-0.488-3.623-0.732-5.186-0.732
		c-1.699,0-2.984,0.552-3.853,1.655c-0.869,1.104-1.304,2.583-1.304,4.438V45.318z"/>
</g>
<g>
</g>
<g>
</g>
<g>
</g>
<g>
</g>
<g>
</g>
<g>
</g>
<g>
</g>
<g>
</g>
<g>
</g>
<g>
</g>
<g>
</g>
</svg>
